<svg
   xmlns="http://www.w3.org/2000/svg"
   width="80.583015mm"
   height="19.84375mm"
   viewBox="0 0 80.583016 19.84375"
   id="logo">
  <g
     transform="matrix(1.5956948,0,0,1.5956948,-129.62174,-226.508)">
    <path
       id="path1500"
       d="m 84.398509,153.82546 c -2.088054,-1.05962 -3.371031,-3.80762 -3.13947,-6.72442 0.239406,-3.01561 1.920173,-5.15159 4.05371,-5.15159 0.805612,0 1.330336,0.16001 1.683782,0.51346 0.508221,0.50822 0.520115,0.50822 1.166212,0 0.789955,-0.62138 1.446282,-0.65067 2.232987,-0.0996 0.338702,0.23724 0.815437,0.34253 1.117205,0.24676 0.785715,-0.24938 0.638959,0.18484 -0.404185,1.1959 -0.88813,0.86081 -0.969588,0.88627 -1.785937,0.55837 -1.488518,-0.5979 -1.692497,-0.61388 -2.138837,-0.16754 -0.694206,0.69421 -0.519284,1.34578 0.742776,2.76679 1.464807,1.64929 1.805464,2.27299 1.598192,2.92604 -0.165325,0.5209 -2.164962,2.37861 -2.560328,2.37861 -0.35576,0 -0.246686,-0.58694 0.201005,-1.08164 0.510421,-0.564 0.263888,-1.12653 -1.252653,-2.85821 -1.413857,-1.61444 -1.40478,-2.66297 0.03456,-3.99176 0.806196,-0.74427 0.979268,-1.04384 0.740833,-1.28227 -0.856238,-0.85624 -2.480973,-0.004 -3.098077,1.62433 -0.438579,1.15754 -0.330032,3.62269 0.211859,4.81143 1.39149,3.05248 3.853464,4.14663 7.112704,3.16101 1.085755,-0.32834 0.626731,0.34837 -0.661458,0.97514 -1.821752,0.88639 -4.332445,0.97182 -5.854878,0.19923 z m 14.123107,0.11336 c -0.436562,-0.23367 -1.077697,-0.64562 -1.424744,-0.91545 -0.347046,-0.26982 -0.999184,-0.49059 -1.449195,-0.49059 h -0.818201 l 0.669667,-0.66966 c 0.368316,-0.36832 1.079986,-0.73481 1.581487,-0.81443 0.760962,-0.12081 1.196353,0.0421 2.631611,0.98481 1.991529,1.30804 3.238609,1.47739 4.420429,0.60029 1.66384,-1.23484 1.67441,-4.29772 0.0217,-6.30269 -0.97745,-1.1858 -3.1085,-2.25874 -4.493571,-2.2624 -1.428641,-0.004 -2.484195,1.02802 -2.361207,2.30806 0.01724,0.17945 0.631256,0.63027 1.364476,1.00182 1.592852,0.80716 2.031552,1.63869 1.453892,2.75576 -0.488214,0.9441 -1.199519,1.2658 -1.199519,0.54251 0,-0.35022 -0.40443,-0.72149 -1.256771,-1.15372 -1.651312,-0.83739 -2.228454,-1.51529 -2.260773,-2.65546 -0.03216,-1.13457 0.661282,-1.95264 2.573022,-3.03543 0.737768,-0.41786 1.56821,-1.01244 1.845425,-1.32127 0.684176,-0.76222 1.856916,-0.71764 3.569296,0.13568 4.37002,2.17767 4.56159,8.9059 0.31683,11.12782 -1.41634,0.74139 -3.955454,0.82189 -5.183904,0.16435 z m -5.924959,-0.45001 -0.593242,-0.63148 0.660017,-0.66002 0.660017,-0.66001 0.683651,0.71357 0.683652,0.71358 -0.615162,0.57792 c -0.761773,0.71565 -0.756104,0.71585 -1.478933,-0.0536 z m 16.139593,0 -0.59324,-0.63148 0.66001,-0.66002 0.66002,-0.66001 0.68365,0.71357 0.68365,0.71358 -0.61516,0.57792 c -0.76177,0.71565 -0.7561,0.71585 -1.47893,-0.0536 z m 4.19813,-0.17216 c -0.41344,-0.58062 -0.71212,-0.75922 -1.07635,-0.64362 -0.75878,0.24082 -0.60645,-0.27168 0.30994,-1.04277 1.06096,-0.89274 1.7217,-0.86484 2.57603,0.10877 0.38308,0.43657 0.8544,0.79375 1.0474,0.79375 0.19299,0 0.58058,-0.50601 0.86131,-1.12448 1.6667,-3.67182 -1.21202,-8.86119 -4.22362,-7.61374 -0.72124,0.29874 -1.33976,1.22383 -1.33976,2.0038 0,0.21143 0.24267,0.62709 0.53927,0.92369 0.42368,0.42368 0.73581,0.50238 1.45637,0.36721 1.25701,-0.23582 2.2377,0.41318 2.2377,1.48087 0,0.77768 -0.38581,1.08543 -0.59059,0.4711 -0.0658,-0.19727 -0.56228,-0.2929 -1.31768,-0.2538 -1.72967,0.0895 -2.61217,-0.7077 -2.78601,-2.51683 -0.15868,-1.65144 0.46385,-3.11088 1.63039,-3.82223 1.11238,-0.67833 3.19271,-0.66037 4.33725,0.0374 l 0.87649,0.53438 0.75185,-0.53537 c 0.99279,-0.70693 2.63234,-0.70482 3.53416,0.005 l 0.68639,0.53991 0.53992,-0.53991 c 0.37707,-0.37708 0.88509,-0.53992 1.68441,-0.53992 1.33088,0 2.04427,0.61083 2.54692,2.18077 0.17436,0.54458 0.51645,1.11066 0.7602,1.25795 0.38858,0.23482 0.32213,0.37358 -0.53951,1.12652 -1.35791,1.18661 -1.89421,2.55205 -1.53146,3.89919 0.32736,1.21575 0.91606,1.89254 1.46346,1.68248 0.62974,-0.24165 0.44936,0.47699 -0.32174,1.28184 -1.31915,1.3769 -2.48843,0.73854 -3.02549,-1.65176 -0.33005,-1.46893 0.10468,-2.94815 1.2337,-4.19784 0.8736,-0.96698 0.8898,-1.02225 0.42325,-1.44448 -0.26682,-0.24146 -0.623,-0.89923 -0.79153,-1.46171 -0.33565,-1.12031 -0.89137,-1.7276 -1.41955,-1.55129 -0.2462,0.0822 -0.34349,0.87146 -0.35366,2.86929 -0.0154,3.02413 -0.30525,4.03133 -1.876,6.51924 -0.99692,1.57903 -1.86831,1.97069 -2.97231,1.33597 -0.38165,-0.21942 -0.84273,-0.34527 -1.02464,-0.27967 -0.57401,0.207 -0.35898,-0.52784 0.38023,-1.29942 0.81415,-0.84978 1.29876,-0.91984 2.16511,-0.31303 0.56587,0.39635 0.64598,0.39563 1.05106,-0.009 0.34826,-0.34825 0.4385,-0.9689 0.4385,-3.0158 0,-2.24538 -0.0871,-2.74663 -0.67663,-3.89212 -0.44315,-0.86112 -0.92293,-1.40143 -1.39042,-1.56584 -1.07164,-0.37688 -1.29286,0.0343 -0.8357,1.55334 0.83416,2.77172 0.2026,5.38442 -1.87522,7.75759 -1.01381,1.15791 -1.36388,1.38906 -2.1037,1.38906 -0.68655,0 -1.01707,-0.18196 -1.45974,-0.80362 z m 16.70395,0.17216 -0.59324,-0.63148 0.66002,-0.66002 0.66001,-0.66001 0.68365,0.71357 0.68366,0.71358 -0.61517,0.57792 c -0.76177,0.71565 -0.7561,0.71585 -1.47893,-0.0536 z"
       style="fill:#000000;stroke-width:0.264583" />
  </g>
</svg>